<svg width="14" height="12" viewBox="0 0 14 12" fill="none" xmlns="http://www.w3.org/2000/svg">
<path id="Vector" d="M12.3333 4.66667V3.33333C12.3333 3.15652 12.2631 2.98695 12.1381 2.86193C12.013 2.7369 11.8435 2.66667 11.6666 2.66667H11V3.33333C11 3.51014 10.9297 3.67971 10.8047 3.80474C10.6797 3.92976 10.5101 4 10.3333 4C10.1565 4 9.98693 3.92976 9.86191 3.80474C9.73688 3.67971 9.66665 3.51014 9.66665 3.33333V2.66667H4.33331V3.33333C4.33331 3.51014 4.26308 3.67971 4.13805 3.80474C4.01303 3.92976 3.84346 4 3.66665 4C3.48984 4 3.32027 3.92976 3.19524 3.80474C3.07022 3.67971 2.99998 3.51014 2.99998 3.33333V2.66667H2.33331C2.1565 2.66667 1.98693 2.7369 1.86191 2.86193C1.73688 2.98695 1.66665 3.15652 1.66665 3.33333V4.66667H12.3333ZM12.3333 6H1.66665V10C1.66665 10.1768 1.73688 10.3464 1.86191 10.4714C1.98693 10.5964 2.1565 10.6667 2.33331 10.6667H11.6666C11.8435 10.6667 12.013 10.5964 12.1381 10.4714C12.2631 10.3464 12.3333 10.1768 12.3333 10V6ZM11 1.33333H11.6666C12.1971 1.33333 12.7058 1.54405 13.0809 1.91912C13.4559 2.29419 13.6666 2.8029 13.6666 3.33333V10C13.6666 10.5304 13.4559 11.0391 13.0809 11.4142C12.7058 11.7893 12.1971 12 11.6666 12H2.33331C1.80288 12 1.29417 11.7893 0.9191 11.4142C0.544027 11.0391 0.333313 10.5304 0.333313 10V3.33333C0.333313 2.8029 0.544027 2.29419 0.9191 1.91912C1.29417 1.54405 1.80288 1.33333 2.33331 1.33333H2.99998V0.666667C2.99998 0.489856 3.07022 0.320286 3.19524 0.195262C3.32027 0.0702379 3.48984 0 3.66665 0C3.84346 0 4.01303 0.0702379 4.13805 0.195262C4.26308 0.320286 4.33331 0.489856 4.33331 0.666667V1.33333H9.66665V0.666667C9.66665 0.489856 9.73688 0.320286 9.86191 0.195262C9.98693 0.0702379 10.1565 0 10.3333 0C10.5101 0 10.6797 0.0702379 10.8047 0.195262C10.9297 0.320286 11 0.489856 11 0.666667V1.33333Z" fill="#323232"/>
</svg>
