<svg width="10" height="14" viewBox="0 0 10 14" fill="none" xmlns="http://www.w3.org/2000/svg">
<path id="Vector" d="M2.68934 7.04665C2.77131 7.01167 2.85945 6.99349 2.94856 6.99317C3.03767 6.99285 3.12595 7.01039 3.20816 7.04477C3.29038 7.07915 3.36486 7.12966 3.42722 7.19332C3.48958 7.25698 3.53854 7.33249 3.57122 7.4154C3.60389 7.49831 3.61961 7.58692 3.61744 7.67601C3.61528 7.7651 3.59528 7.85285 3.55862 7.93407C3.52197 8.01529 3.4694 8.08834 3.40402 8.1489C3.33865 8.20946 3.2618 8.2563 3.17801 8.28665C2.73237 8.46223 2.3499 8.76788 2.08035 9.16382C1.8108 9.55976 1.66666 10.0277 1.66668 10.5066V11.6666C1.66668 11.8435 1.73691 12.013 1.86194 12.1381C1.98696 12.2631 2.15653 12.3333 2.33334 12.3333H7.66668C7.84349 12.3333 8.01306 12.2631 8.13808 12.1381C8.26311 12.013 8.33334 11.8435 8.33334 11.6666V10.5686C8.33342 10.0743 8.18325 9.5916 7.90275 9.18453C7.62225 8.77747 7.22465 8.46527 6.76268 8.28931C6.67837 8.26006 6.6008 8.21417 6.53455 8.15438C6.46831 8.09459 6.41474 8.0221 6.37703 7.94122C6.33932 7.86035 6.31822 7.77272 6.31501 7.68354C6.31179 7.59436 6.32651 7.50544 6.35829 7.42205C6.39007 7.33866 6.43827 7.26251 6.50004 7.19809C6.5618 7.13368 6.63586 7.08232 6.71784 7.04707C6.79982 7.01181 6.88804 6.99337 6.97728 6.99284C7.06652 6.99231 7.15495 7.0097 7.23734 7.04398C7.95175 7.3161 8.5666 7.79887 9.00044 8.42831C9.43428 9.05776 9.66662 9.80417 9.66668 10.5686V11.6666C9.66668 12.1971 9.45596 12.7058 9.08089 13.0809C8.70582 13.4559 8.19711 13.6666 7.66668 13.6666H2.33334C1.80291 13.6666 1.2942 13.4559 0.91913 13.0809C0.544057 12.7058 0.333344 12.1971 0.333344 11.6666V10.5066C0.333435 9.76008 0.558195 9.03083 0.978384 8.41374C1.39857 7.79665 1.99474 7.3203 2.68934 7.04665ZM5.00001 0.333313C5.70725 0.333313 6.38553 0.614265 6.88563 1.11436C7.38573 1.61446 7.66668 2.29274 7.66668 2.99998V4.33331C7.66668 5.04056 7.38573 5.71883 6.88563 6.21893C6.38553 6.71903 5.70725 6.99998 5.00001 6.99998C4.29277 6.99998 3.61449 6.71903 3.11439 6.21893C2.6143 5.71883 2.33334 5.04056 2.33334 4.33331V2.99998C2.33334 2.29274 2.6143 1.61446 3.11439 1.11436C3.61449 0.614265 4.29277 0.333313 5.00001 0.333313ZM5.00001 1.66665C4.64639 1.66665 4.30725 1.80712 4.0572 2.05717C3.80715 2.30722 3.66668 2.64636 3.66668 2.99998V4.33331C3.66668 4.68693 3.80715 5.02607 4.0572 5.27612C4.30725 5.52617 4.64639 5.66665 5.00001 5.66665C5.35363 5.66665 5.69277 5.52617 5.94282 5.27612C6.19287 5.02607 6.33334 4.68693 6.33334 4.33331V2.99998C6.33334 2.64636 6.19287 2.30722 5.94282 2.05717C5.69277 1.80712 5.35363 1.66665 5.00001 1.66665Z" fill="#323232"/>
</svg>
