<svg width="16" height="18" viewBox="0 0 16 18" fill="none" xmlns="http://www.w3.org/2000/svg">
<path d="M0.620117 17.57C0.750117 16.98 0.790115 14.32 0.790115 13.79V4.21997C0.790115 3.29997 0.730117 1.44997 0.620117 0.969971H10.5301C12.9201 0.969971 14.9201 2.47997 14.9201 5.24997C14.9201 6.56997 14.5001 7.53997 13.8301 8.22997C15.0701 9.06997 15.9501 10.45 15.9501 12.47C15.9501 15.96 13.2201 17.57 10.7001 17.57H0.620117ZM9.69012 7.06998C10.4701 7.06998 11.0801 6.77997 11.0801 5.82997C11.0801 4.92997 10.4701 4.58997 9.69012 4.58997H4.76012V7.06998H9.69012ZM10.0901 13.81C10.9901 13.81 11.8301 13.45 11.8301 12.26C11.8301 11.02 10.9701 10.68 10.0901 10.68H4.76012V13.81H10.0901Z" fill="#231815"/>
</svg>
