<svg width="40" height="39" viewBox="0 0 40 39" fill="none" xmlns="http://www.w3.org/2000/svg">
<path d="M39.5399 25.78C36.6599 25.74 31.5299 25.69 25.9999 25.69C25.9999 26.81 26.0399 28.03 26.0899 29.47H16.0499C16.0899 27.94 16.1399 26.72 16.1399 25.69C9.65989 25.69 3.58989 25.73 0.389893 25.78V18.22C8.03989 18.4 32.1099 18.49 39.5399 18.22V25.78ZM29.5499 0.0400391C34.9499 0.0400391 38.4099 3.05004 38.4099 8.23004C38.4099 13.67 34.9499 16.37 29.5499 16.37H10.5099C5.10989 16.37 1.64989 13.62 1.64989 8.23004C1.64989 3.06004 5.10989 0.0400391 10.5099 0.0400391H29.5499ZM37.7799 38.83C25.2299 38.74 16.3599 38.74 2.63989 38.83C2.72989 35.19 2.72989 30.91 2.63989 27.72H12.3999C12.3099 28.71 12.3099 30.91 12.3099 31.45C22.6099 31.45 28.3299 31.45 37.7799 31.36V38.83ZM28.0199 9.31004C29.1899 9.31004 29.5499 8.81005 29.5499 8.14005C29.5499 7.47005 29.1899 6.93004 28.0199 6.93004H12.4899C11.0099 6.93004 10.7799 7.56005 10.7799 8.14005C10.7799 8.77005 11.0099 9.31004 12.4899 9.31004H28.0199Z" fill="#231815"/>
</svg>
