<svg width="21" height="18" viewBox="0 0 21 18" fill="none" xmlns="http://www.w3.org/2000/svg">
<path d="M0.639893 17.57C0.759893 16.98 0.809891 14.3199 0.809891 13.7899V4.65996C0.809891 4.13996 0.769893 1.54996 0.639893 0.959961H5.69989L10.5299 10.47L15.3999 0.959961H20.6899C20.5799 1.43996 20.5199 3.28996 20.5199 4.20996V14.31C20.5199 15.23 20.5799 17.08 20.6899 17.56H16.3899C16.4999 17.08 16.5399 15.19 16.5599 14.24V6.71996L15.9099 8.16995L11.9199 16.72H9.26989L5.17989 8.16995L4.77989 7.20996V13.8699C4.77989 14.3899 4.81989 16.98 4.94989 17.57H0.639893Z" fill="#231815"/>
</svg>
