<svg width="38" height="40" viewBox="0 0 38 40" fill="none" xmlns="http://www.w3.org/2000/svg">
<path d="M37.6799 28.2599C34.5699 28.2199 29.3499 28.17 23.8199 28.17C23.8199 30.92 23.7799 35.4999 23.9099 39.2899H14.9099C14.9999 35.5499 15.0399 31.01 15.0399 28.17C9.41993 28.17 3.95994 28.2199 0.939941 28.2599V20.25C5.65994 20.38 15.8499 20.4699 24.5299 20.4299C25.7899 16.6999 26.2799 10.58 26.2799 8.95996C18.7199 8.95996 10.8299 8.95995 3.26994 9.08995V0.949951C13.5299 1.07995 25.7799 1.07995 36.0399 0.949951C36.1299 8.59995 34.6399 15.44 32.8899 20.39L37.6599 20.2599V28.2599H37.6799Z" fill="#231815"/>
</svg>
