<svg width="40" height="40" viewBox="0 0 40 40" fill="none" xmlns="http://www.w3.org/2000/svg">
<path d="M39.6898 23.13C31.8598 22.95 8.1898 22.99 0.539795 23.13V16.29C3.59979 16.38 9.35979 16.42 15.6098 16.47V14.31C10.4798 14.31 5.70979 14.35 2.9698 14.4C3.0598 10.17 3.0598 4.72999 2.9698 0.48999C10.9298 0.62999 28.2998 0.62999 37.6198 0.48999V6.56999H12.2898V8.36998H37.6198V14.4C34.5998 14.35 30.1498 14.35 25.4198 14.31V16.47C31.3598 16.47 36.7998 16.43 39.6898 16.29V23.13ZM30.7798 24.88C35.3198 24.88 38.8298 26.9 38.8298 32.12C38.8298 36.98 35.3198 39.28 30.7798 39.28H9.53979C5.17979 39.28 1.52979 37.03 1.52979 32.12C1.52979 26.95 5.1298 24.88 9.53979 24.88H30.7798ZM28.7098 32.98C29.7498 32.98 30.1498 32.62 30.1498 31.94C30.1498 31.26 29.7398 30.95 28.7098 30.95H11.6598C10.6298 30.95 10.2198 31.31 10.2198 31.99C10.2198 32.62 10.6298 32.98 11.6598 32.98H28.7098Z" fill="#231815"/>
</svg>
