<svg width="17" height="19" viewBox="0 0 17 19" fill="none" xmlns="http://www.w3.org/2000/svg">
<path d="M8.32999 7.18997C9.01999 7.24997 9.96999 7.26997 10.49 7.26997H16.26V14C14.94 16.6 12.54 18.09 8.96999 18.09C4.11999 18.09 0.73999 15.87 0.73999 9.09998C0.73999 3.06998 3.82999 0.469971 9.06999 0.469971C11.65 0.469971 14.42 1.38997 16.08 4.30997L12.49 6.46997C11.88 5.22997 10.83 4.42996 9.06999 4.42996C6.44999 4.42996 4.90999 5.66997 4.90999 9.12997C4.90999 12.76 6.41999 14.09 8.95999 14.09C10.96 14.09 11.92 13.21 12.47 12.26V11H9.94999C9.44999 11.02 8.81999 11.04 8.30999 11.08V7.18997H8.32999Z" fill="#231815"/>
</svg>
