<svg width="95" height="60" viewBox="0 0 189 120" fill="none" xmlns="http://www.w3.org/2000/svg">
<path d="M187.118 105.387L163.4 98.9616C160.953 98.3001 160.816 96.841 163.1 95.7263L185.298 84.9055C187.582 83.7908 187.382 82.8936 184.844 82.9027L160.743 83.0477C158.205 83.0658 157.768 81.7698 159.761 80.1839L179.567 64.3696C181.559 62.7746 181.177 61.959 178.712 62.5662L155.13 68.2847C152.664 68.8828 151.973 67.75 153.602 65.7653L170.123 45.5919C171.752 43.6072 171.215 42.9184 168.941 44.0603L146.851 55.1529C144.576 56.2948 143.694 55.3704 144.895 53.0957L157.359 29.406C158.56 27.1313 157.914 26.5876 155.94 28.2098L136.288 44.2687C134.314 45.8819 133.295 45.1841 134.032 42.719L141.829 16.5462C142.566 14.0721 141.856 13.6915 140.255 15.6943L123.924 36.0761C122.323 38.079 121.222 37.6077 121.477 35.043L124.215 7.57419C124.47 5.00947 123.724 4.77385 122.551 7.06669L110.314 30.9195C109.14 33.2123 107.994 32.9767 107.757 30.4029L105.292 2.89788C105.064 0.324102 104.291 0.251602 103.582 2.7257L96.0485 28.9982C95.3389 31.4723 94.1743 31.4723 93.4647 28.9982L85.9317 2.7257C85.222 0.251602 84.4487 0.324102 84.2213 2.89788L81.7558 30.4029C81.5283 32.9767 80.3729 33.2033 79.1993 30.9195L66.9626 7.06669C65.789 4.77385 65.0339 5.00947 65.2977 7.57419L68.0362 35.043C68.2909 37.6077 67.1901 38.079 65.5889 36.0761L49.2491 15.6943C47.6479 13.6915 46.9383 14.0812 47.6752 16.5462L55.4721 42.719C56.209 45.1931 55.19 45.8909 53.2158 44.2687L33.5644 28.2098C31.5902 26.5966 30.9442 27.1313 32.1452 29.406L44.6092 53.0957C45.8101 55.3704 44.9276 56.2948 42.6532 55.1529L20.5636 44.0603C18.2891 42.9184 17.7614 43.6072 19.3809 45.5919L35.9026 65.7653C37.5311 67.75 36.8397 68.8828 34.3741 68.2847L10.7925 62.5662C8.32697 61.968 7.93576 62.7837 9.93729 64.3696L29.7433 80.1839C31.7358 81.7789 31.2991 83.0658 28.7608 83.0477L4.66053 82.9027C2.12223 82.8845 1.92208 83.7908 4.20564 84.9055L26.4044 95.7263C28.688 96.841 28.5606 98.3001 26.1042 98.9616L2.38607 105.387C-0.0612547 106.049 0.00243235 106.592 2.54073 106.592H42.353H47.7935H63.5055H65.789C67.5267 106.629 68.7367 106.864 68.7185 108.06C68.7003 108.867 67.2174 113.96 65.7435 113.888C65.7435 113.888 62.4865 113.317 62.25 115.555C62.0134 117.794 63.3781 119.633 65.2704 119.633C67.1628 119.633 71.0567 119.633 73.9316 119.633H75.4328C78.2986 119.633 82.0105 119.633 83.6754 119.633C85.3403 119.633 86.705 117.241 86.705 114.323V111.894C86.705 108.976 89.0523 106.583 91.9181 106.583H94.7566H97.5951C100.461 106.583 102.808 108.976 102.808 111.894V114.323C102.808 117.241 104.173 119.633 105.838 119.633C107.503 119.633 111.215 119.633 114.08 119.633H115.582C118.447 119.633 122.341 119.633 124.243 119.633C126.135 119.633 127.491 117.803 127.263 115.555C127.027 113.317 123.77 113.888 123.77 113.888C122.296 113.96 120.813 108.867 120.795 108.06C120.776 106.864 121.986 106.629 123.724 106.592H126.008H141.72H147.16H186.972C189.502 106.601 189.574 106.058 187.118 105.387Z" fill="#231815"/>
<path d="M107.002 88.8931C109.861 88.8931 112.179 85.0142 112.179 80.2293C112.179 75.4444 109.861 71.5654 107.002 71.5654C104.143 71.5654 101.826 75.4444 101.826 80.2293C101.826 85.0142 104.143 88.8931 107.002 88.8931Z" fill="white"/>
<path d="M105.128 83.963C107.203 83.963 108.886 82.2913 108.886 80.2292C108.886 78.1671 107.203 76.4954 105.128 76.4954C103.053 76.4954 101.371 78.1671 101.371 80.2292C101.371 82.2913 103.053 83.963 105.128 83.963Z" fill="#231815"/>
<path d="M82.9567 88.8931C85.8157 88.8931 88.1334 85.0142 88.1334 80.2293C88.1334 75.4444 85.8157 71.5654 82.9567 71.5654C80.0977 71.5654 77.78 75.4444 77.78 80.2293C77.78 85.0142 80.0977 88.8931 82.9567 88.8931Z" fill="white"/>
<path d="M81.0826 83.963C83.1577 83.963 84.84 82.2913 84.84 80.2292C84.84 78.1671 83.1577 76.4954 81.0826 76.4954C79.0074 76.4954 77.3251 78.1671 77.3251 80.2292C77.3251 82.2913 79.0074 83.963 81.0826 83.963Z" fill="#231815"/>
<path d="M94.8476 83.9541C96.7921 83.9541 98.3685 82.3879 98.3685 80.4559C98.3685 78.524 96.7921 76.9578 94.8476 76.9578C92.9031 76.9578 91.3267 78.524 91.3267 80.4559C91.3267 82.3879 92.9031 83.9541 94.8476 83.9541Z" fill="white"/>
<path d="M94.8476 99.5961L86.3502 93.3066C86.3502 96.7776 90.1531 99.5961 94.8476 99.5961Z" fill="white"/>
<path d="M94.8476 99.5961C99.5421 99.5961 103.345 96.7776 103.345 93.3066L94.8476 99.5961Z" fill="white"/>
<path d="M94.8476 83.9541C90.1531 83.9541 86.3502 89.8267 86.3502 93.3067H103.345C103.345 89.8357 99.5421 83.9541 94.8476 83.9541Z" fill="white"/>
</svg>
