<svg width="24" height="23" viewBox="0 0 24 23" fill="none" xmlns="http://www.w3.org/2000/svg">
<path d="M11.0257 1.21445C11.2645 0.181437 12.7355 0.181437 12.9743 1.21445L14.0621 5.92C14.2063 6.54337 14.8906 6.87293 15.4678 6.59694L19.825 4.51358C20.7816 4.05622 21.6987 5.20627 21.04 6.03706L18.0393 9.82143C17.6417 10.3228 17.8108 11.0633 18.3864 11.3425L22.7319 13.4501C23.6859 13.9128 23.3586 15.3469 22.2983 15.3499L17.4687 15.3634C16.8289 15.3652 16.3553 15.959 16.4959 16.5832L17.5575 21.2947C17.7905 22.329 16.4652 22.9673 15.8019 22.1402L12.7801 18.3726C12.3798 17.8735 11.6202 17.8735 11.2199 18.3726L8.19814 22.1402C7.53477 22.9673 6.20946 22.329 6.44251 21.2947L7.50406 16.5832C7.64469 15.959 7.17112 15.3652 6.53131 15.3634L1.70167 15.3499C0.641416 15.3469 0.314091 13.9128 1.26806 13.4501L5.61357 11.3425C6.18924 11.0633 6.35826 10.3228 5.96074 9.82143L2.96005 6.03706C2.3013 5.20627 3.21845 4.05622 4.17498 4.51358L8.53219 6.59694C9.10941 6.87293 9.79375 6.54337 9.93786 5.92L11.0257 1.21445Z" fill="#D4BFFF"/>
</svg>
