<svg width="14" height="14" viewBox="0 0 14 14" fill="none" xmlns="http://www.w3.org/2000/svg">
<path id="Vector" d="M12.946 2.09002L8.97734 12.81C8.72668 13.4874 8.00468 13.8354 7.36534 13.5867C7.20702 13.524 7.06339 13.4292 6.9435 13.3082C6.8236 13.1873 6.73003 13.0429 6.66868 12.884L5.41068 9.70402C5.17427 9.09359 4.70562 8.60169 4.10734 8.33602L1.07934 7.01535C0.449344 6.74002 0.162677 5.97669 0.43801 5.31002C0.503136 5.14905 0.599537 5.00259 0.721636 4.87911C0.843736 4.75564 0.989109 4.65761 1.14934 4.59069L11.36 0.424019C12.0047 0.160686 12.72 0.491353 12.9567 1.16335C13.0613 1.46069 13.0573 1.79002 12.9467 2.09002H12.946Z" fill="#323232"/>
</svg>
