<svg width="250" height="218" viewBox="0 0 250 218" fill="none" xmlns="http://www.w3.org/2000/svg">
<g clip-path="url(#clip0)">
<path d="M12.1002 66.8784C12.9008 65.9902 13.9016 64.7124 14.4474 63.9874L20.4065 56.0304L29.6954 62.9361C31.9335 67.4312 31.5241 72.2616 27.8395 77.1826C22.8357 83.8617 16.267 86.2361 6.91441 79.2851C-1.41923 73.0953 -1.83773 66.1624 3.57549 58.9304C6.24117 55.3688 10.3807 52.505 16.1214 53.2119L15.4118 60.3805C13.0737 59.9455 10.8811 60.5708 9.0615 62.9996C6.36854 66.6246 6.4959 70.005 11.2905 73.5666C16.3125 77.3004 19.706 76.5754 22.3262 73.0772C24.3823 70.3312 24.1639 68.0928 23.4179 66.3709L21.6711 65.0749L19.0691 68.5459C18.5779 69.2618 17.9592 70.15 17.4952 70.884L12.1002 66.8784Z" fill="#231815"/>
<path d="M23.2905 38.4308C23.4998 38.6846 24.1912 38.9474 25.0191 39.2555L34.6355 42.3278L33.4892 32.2501C33.3619 31.4164 33.189 30.7639 32.9615 30.4376L40.1852 24.4653C40.0943 24.8641 40.0943 26.7854 40.3217 28.761L42.1959 45.9256L45.5075 49.895C46.5264 51.1185 48.6462 53.4929 49.3195 54.0185L43.324 58.9758C42.8418 58.0605 39.9578 54.4898 39.3846 53.792L36.7917 50.6835L21.6256 45.8712C19.2784 45.1372 16.4489 44.5209 15.9395 44.53L23.2905 38.4308Z" fill="#231815"/>
<path d="M58.8632 45.9527C58.663 44.9377 56.898 40.7054 56.5432 39.8717L50.2839 25.4621C49.92 24.6284 48.0913 20.5864 47.4908 19.7436L55.5061 16.2907L69.6714 28.0087L70.8723 9.67504L79.2515 6.06812C79.4152 6.90188 80.5797 9.85629 81.2166 11.3154L88.131 27.2474C88.7678 28.7065 90.1325 31.5794 90.6238 32.2681L83.8095 35.2044C83.6457 34.3707 82.4175 31.3619 81.808 29.8575L76.6586 17.9945L76.6222 20.7224L76.1491 36.9354L71.955 38.7388L59.6183 28.045L58.3264 26.7943L62.8844 37.2979C63.2483 38.1226 65.077 42.1736 65.6866 43.0164L58.8632 45.9527Z" fill="#231815"/>
<path d="M106.299 29.6854C106.49 28.6704 106.454 24.0847 106.436 23.1875L106.054 6.73884C106.017 5.15289 105.835 1.98097 105.635 1.15627L122.721 0.748454C126.851 0.648765 130.354 3.16817 130.463 7.93511C130.518 10.2098 129.836 11.8864 128.698 13.1008C130.873 14.4964 132.447 16.8437 132.528 20.3056C132.674 26.296 128.025 29.1869 123.676 29.2866L106.299 29.6854ZM121.52 11.2883C122.857 11.252 123.904 10.7264 123.858 9.10419C123.822 7.55448 122.757 7.00166 121.42 7.02885L112.904 7.22823L113.004 11.4877L121.52 11.2883ZM122.484 22.8522C124.04 22.8159 125.478 22.1725 125.423 20.1153C125.378 17.9856 123.876 17.4418 122.357 17.478L113.159 17.6956L113.287 23.0697L122.484 22.8522Z" fill="#231815"/>
<path d="M166.955 7.26447C166.518 8.19792 165.463 12.5117 165.263 13.3999L162.915 23.7494C161.551 29.767 157.384 35.1592 147.986 33.0386C138.688 30.9451 136.668 24.1572 138.033 18.1396L140.553 7.04697C140.871 5.4882 141.499 2.37972 141.508 1.52783L148.996 3.21348C148.632 3.9838 147.822 7.05603 147.476 8.60574L145.138 18.8827C144.201 22.9972 146.021 25.6344 149.551 26.4319C152.98 27.2022 155.364 25.5256 156.301 21.4022L158.466 11.8592C158.667 10.9801 159.576 6.63009 159.485 5.57882L166.955 7.26447Z" fill="#231815"/>
<path d="M164.58 36.5909C165.235 35.7934 167.428 31.7153 167.837 30.9177L174.934 17.1788C175.352 16.3813 177.426 12.2034 177.69 11.2065L188.162 16.5716C195.285 20.2238 198.397 26.4046 193.757 35.3947C188.553 45.4723 182.103 45.572 175.015 41.9379L164.58 36.5909ZM178.154 36.2012C180.893 37.606 184.459 38.5847 187.698 32.3224C190.727 26.4499 188.007 23.8398 185.269 22.4351L181.047 20.2692L173.933 34.0353L178.154 36.2012Z" fill="#231815"/>
<path d="M190.8 50.6199C191.637 50.0037 194.767 46.5961 195.367 45.9164L205.648 34.3525C206.248 33.6728 209.296 30.1384 209.806 29.2412L218.622 37.0169C224.617 42.3095 226.109 49.0702 219.386 56.6375C211.844 65.1201 205.566 63.6339 199.598 58.3775L190.8 50.6199ZM204.038 53.5743C206.348 55.6044 209.56 57.435 214.245 52.1606C218.64 47.2124 216.647 44.0133 214.346 41.9742L210.788 38.8385L200.48 50.4296L204.038 53.5743Z" fill="#231815"/>
<path d="M237.09 56.1119C236.826 56.3023 236.517 56.9729 236.153 57.7704L232.468 67.1411L242.631 66.6427C243.468 66.5702 244.141 66.4433 244.487 66.2349L250.009 73.7931C249.609 73.6753 247.689 73.5575 245.697 73.6572L228.384 74.4184L224.199 77.4544C222.907 78.3879 220.396 80.3454 219.832 80.9798L215.246 74.7084C216.192 74.2916 219.959 71.6543 220.687 71.1196L223.971 68.7452L229.757 53.9732C230.64 51.6803 231.44 48.9162 231.468 48.3997L237.09 56.1119Z" fill="#231815"/>
<path d="M70.1263 205.6C67.5061 205.564 62.8389 205.518 57.8078 205.518C57.8078 206.533 57.8442 207.639 57.8897 208.944H48.7554C48.7918 207.557 48.8373 206.452 48.8373 205.518C42.9419 205.518 37.4195 205.555 34.5082 205.6V198.749C41.468 198.912 63.3666 198.993 70.1263 198.749V205.6ZM61.0375 182.273C65.9504 182.273 69.0982 185.001 69.0982 189.695C69.0982 194.625 65.9504 197.072 61.0375 197.072H43.7152C38.8024 197.072 35.6545 194.58 35.6545 189.695C35.6545 185.01 38.8024 182.273 43.7152 182.273H61.0375ZM68.5251 217.427C57.1073 217.345 49.0375 217.345 36.5552 217.427C36.6371 214.128 36.6371 210.249 36.5552 207.358H45.4347C45.3528 208.255 45.3528 210.249 45.3528 210.738C54.7236 210.738 59.9276 210.738 68.5251 210.657V217.427ZM59.6456 190.674C60.71 190.674 61.0375 190.221 61.0375 189.613C61.0375 189.006 60.71 188.517 59.6456 188.517H45.5166C44.1701 188.517 43.9609 189.088 43.9609 189.613C43.9609 190.184 44.1701 190.674 45.5166 190.674H59.6456Z" fill="#231815"/>
<path d="M117.572 203.198C110.448 203.035 88.9134 203.071 81.9535 203.198V196.999C84.7375 197.081 89.9778 197.117 95.664 197.162V195.205C90.9968 195.205 86.6571 195.241 84.1643 195.287C84.2462 191.453 84.2462 186.523 84.1643 182.68C91.4062 182.807 107.209 182.807 115.688 182.68V188.19H92.6435V189.822H115.688V195.287C112.941 195.241 108.892 195.241 104.589 195.205V197.162C109.993 197.162 114.942 197.126 117.572 196.999V203.198ZM109.465 204.784C113.596 204.784 116.789 206.615 116.789 211.346C116.789 215.75 113.596 217.834 109.465 217.834H90.1416C86.1749 217.834 82.8542 215.795 82.8542 211.346C82.8542 206.66 86.1294 204.784 90.1416 204.784H109.465ZM107.582 212.125C108.528 212.125 108.892 211.799 108.892 211.182C108.892 210.566 108.519 210.285 107.582 210.285H92.0703C91.1333 210.285 90.7602 210.611 90.7602 211.228C90.7602 211.799 91.1333 212.125 92.0703 212.125H107.582Z" fill="#231815"/>
<path d="M128.18 198.141C134.566 196.592 137.769 194.516 139.079 191.988C136.249 191.988 133.511 192.024 130.973 192.069V184.81C133.265 184.892 135.758 184.937 138.342 184.937C138.342 183.995 138.306 183.061 138.26 182.119H146.858C146.776 183.061 146.739 184.04 146.739 184.973C149.114 184.937 151.407 184.892 153.49 184.81V192.069C151.561 192.033 149.605 191.988 147.558 191.988C147.431 192.686 147.267 193.338 147.021 193.945C149.232 196.184 153.535 197.009 155.046 197.163L152.626 204.458C149.723 204.005 145.711 202.582 142.8 199.972C139.607 202.7 135.312 204.25 131.546 205.11L128.18 198.141Z" fill="#231815"/>
<path d="M164.571 217.426C153.153 217.345 144.938 217.345 132.447 217.426C132.528 214.128 132.528 208.373 132.447 205.482H141.008C140.926 206.787 140.926 209.234 140.926 210.539C150.297 210.539 155.974 210.539 164.571 210.457V217.426Z" fill="#231815"/>
<path d="M156.902 206.379C157.065 200.67 157.065 187.701 156.902 182.69H164.671C164.553 187.71 164.507 200.634 164.671 206.379H156.902Z" fill="#231815"/>
<path d="M209.46 207.847C206.63 207.811 201.881 207.766 196.85 207.766C196.85 210.258 196.814 214.409 196.932 217.843H188.744C188.826 214.454 188.862 210.34 188.862 207.766C183.749 207.766 178.782 207.811 176.034 207.847V200.588C180.329 200.706 189.599 200.788 197.496 200.751C198.643 197.371 199.088 191.825 199.088 190.357C192.21 190.357 185.032 190.357 178.154 190.474V183.097C187.489 183.215 198.633 183.215 207.968 183.097C208.05 190.03 206.694 196.229 205.102 200.715L209.442 200.597V207.847H209.46Z" fill="#231815"/>
<path d="M214.118 154.387L190.4 147.962C187.953 147.3 187.816 145.841 190.1 144.726L212.298 133.906C214.582 132.791 214.382 131.894 211.844 131.903L187.743 132.048C185.205 132.066 184.768 130.77 186.761 129.184L206.567 113.37C208.559 111.775 208.177 110.959 205.712 111.566L182.13 117.285C179.664 117.883 178.973 116.75 180.602 114.765L197.123 94.5919C198.752 92.6072 198.215 91.9184 195.941 93.0603L173.851 104.153C171.576 105.295 170.694 104.37 171.895 102.096L184.359 78.406C185.56 76.1313 184.914 75.5876 182.94 77.2098L163.288 93.2687C161.314 94.8819 160.295 94.1841 161.032 91.719L168.829 65.5462C169.566 63.0721 168.856 62.6915 167.255 64.6943L150.924 85.0761C149.323 87.079 148.222 86.6077 148.477 84.043L151.215 56.5742C151.47 54.0095 150.724 53.7738 149.551 56.0667L137.314 79.9195C136.14 82.2123 134.994 81.9767 134.757 79.4029L132.292 51.8979C132.064 49.3241 131.291 49.2516 130.582 51.7257L123.049 77.9982C122.339 80.4723 121.174 80.4723 120.465 77.9982L112.932 51.7257C112.222 49.2516 111.449 49.3241 111.221 51.8979L108.756 79.4029C108.528 81.9767 107.373 82.2033 106.199 79.9195L93.9626 56.0667C92.789 53.7738 92.0339 54.0095 92.2977 56.5742L95.0362 84.043C95.2909 86.6077 94.1901 87.079 92.5889 85.0761L76.2491 64.6943C74.6479 62.6915 73.9383 63.0812 74.6752 65.5462L82.4721 91.719C83.209 94.1931 82.19 94.8909 80.2158 93.2687L60.5644 77.2098C58.5902 75.5966 57.9442 76.1313 59.1452 78.406L71.6092 102.096C72.8101 104.37 71.9276 105.295 69.6532 104.153L47.5636 93.0603C45.2891 91.9184 44.7614 92.6072 46.3809 94.5919L62.9026 114.765C64.5311 116.75 63.8397 117.883 61.3741 117.285L37.7925 111.566C35.327 110.968 34.9358 111.784 36.9373 113.37L56.7433 129.184C58.7358 130.779 58.2991 132.066 55.7608 132.048L31.6605 131.903C29.1222 131.885 28.9221 132.791 31.2056 133.906L53.4044 144.726C55.688 145.841 55.5606 147.3 53.1042 147.962L29.3861 154.387C26.9387 155.049 27.0024 155.592 29.5407 155.592H69.353H74.7935H90.5055H92.789C94.5267 155.629 95.7367 155.864 95.7185 157.06C95.7003 157.867 94.2174 162.96 92.7435 162.888C92.7435 162.888 89.4865 162.317 89.25 164.555C89.0134 166.794 90.3781 168.633 92.2704 168.633C94.1628 168.633 98.0567 168.633 100.932 168.633H102.433C105.299 168.633 109.011 168.633 110.675 168.633C112.34 168.633 113.705 166.241 113.705 163.323V160.894C113.705 157.976 116.052 155.583 118.918 155.583H121.757H124.595C127.461 155.583 129.808 157.976 129.808 160.894V163.323C129.808 166.241 131.173 168.633 132.838 168.633C134.503 168.633 138.215 168.633 141.08 168.633H142.582C145.447 168.633 149.341 168.633 151.243 168.633C153.135 168.633 154.491 166.803 154.263 164.555C154.027 162.317 150.77 162.888 150.77 162.888C149.296 162.96 147.813 157.867 147.795 157.06C147.776 155.864 148.986 155.629 150.724 155.592H153.008H168.72H174.16H213.972C216.502 155.601 216.574 155.058 214.118 154.387Z" fill="#231815"/>
<path d="M134.002 137.893C136.861 137.893 139.179 134.014 139.179 129.229C139.179 124.444 136.861 120.565 134.002 120.565C131.143 120.565 128.826 124.444 128.826 129.229C128.826 134.014 131.143 137.893 134.002 137.893Z" fill="white"/>
<path d="M132.128 132.963C134.203 132.963 135.886 131.291 135.886 129.229C135.886 127.167 134.203 125.495 132.128 125.495C130.053 125.495 128.371 127.167 128.371 129.229C128.371 131.291 130.053 132.963 132.128 132.963Z" fill="#231815"/>
<path d="M109.957 137.893C112.816 137.893 115.133 134.014 115.133 129.229C115.133 124.444 112.816 120.565 109.957 120.565C107.098 120.565 104.78 124.444 104.78 129.229C104.78 134.014 107.098 137.893 109.957 137.893Z" fill="white"/>
<path d="M108.083 132.963C110.158 132.963 111.84 131.291 111.84 129.229C111.84 127.167 110.158 125.495 108.083 125.495C106.007 125.495 104.325 127.167 104.325 129.229C104.325 131.291 106.007 132.963 108.083 132.963Z" fill="#231815"/>
<path d="M121.848 132.954C123.792 132.954 125.368 131.388 125.368 129.456C125.368 127.524 123.792 125.958 121.848 125.958C119.903 125.958 118.327 127.524 118.327 129.456C118.327 131.388 119.903 132.954 121.848 132.954Z" fill="white"/>
<path d="M121.848 148.596L113.35 142.307C113.35 145.778 117.153 148.596 121.848 148.596Z" fill="white"/>
<path d="M121.848 148.596C126.542 148.596 130.345 145.778 130.345 142.307L121.848 148.596Z" fill="white"/>
<path d="M121.848 132.954C117.153 132.954 113.35 138.827 113.35 142.307H130.345C130.345 138.836 126.542 132.954 121.848 132.954Z" fill="white"/>
</g>
<defs>
<clipPath id="clip0">
<rect width="250" height="217.086" fill="white" transform="translate(0 0.748535)"/>
</clipPath>
</defs>
</svg>
