<svg width="31" height="30" viewBox="0 0 31 30" fill="none" xmlns="http://www.w3.org/2000/svg">
<path id="Star 4" d="M14.5446 1.09181C14.835 0.152133 16.165 0.152134 16.4554 1.09181L19.1773 9.90012C19.3068 10.3191 19.6942 10.6049 20.1328 10.6049H29.0437C30.0002 10.6049 30.4109 11.8189 29.6508 12.3995L22.3567 17.9717C22.0237 18.2261 21.8846 18.6612 22.0084 19.0616L24.7739 28.0108C25.0613 28.941 23.9851 29.6918 23.2114 29.1007L16.1071 23.6735C15.7487 23.3997 15.2513 23.3997 14.8929 23.6735L7.78863 29.1007C7.01494 29.6918 5.93869 28.941 6.22615 28.0108L8.99162 19.0616C9.11535 18.6612 8.97628 18.2261 8.64326 17.9717L1.34923 12.3995C0.589118 11.8189 0.999761 10.6049 1.95629 10.6049H10.8672C11.3058 10.6049 11.6932 10.3191 11.8227 9.90012L14.5446 1.09181Z" fill="#F4DA40"/>
</svg>
