<svg width="14" height="14" viewBox="0 0 14 14" fill="none" xmlns="http://www.w3.org/2000/svg">
<path id="Vector" d="M7.66665 6.33331V2.99998C7.66665 2.82317 7.59641 2.6536 7.47138 2.52858C7.34636 2.40355 7.17679 2.33331 6.99998 2.33331C6.82317 2.33331 6.6536 2.40355 6.52858 2.52858C6.40355 2.6536 6.33331 2.82317 6.33331 2.99998V6.99998C6.33331 7.17679 6.40355 7.34636 6.52858 7.47138C6.6536 7.59641 6.82317 7.66665 6.99998 7.66665H10.3333C10.5101 7.66665 10.6797 7.59641 10.8047 7.47138C10.9297 7.34636 11 7.17679 11 6.99998C11 6.82317 10.9297 6.6536 10.8047 6.52858C10.6797 6.40355 10.5101 6.33331 10.3333 6.33331H7.66665ZM6.99998 13.6666C3.31798 13.6666 0.333313 10.682 0.333313 6.99998C0.333313 3.31798 3.31798 0.333313 6.99998 0.333313C10.682 0.333313 13.6666 3.31798 13.6666 6.99998C13.6666 10.682 10.682 13.6666 6.99998 13.6666Z" fill="#323232"/>
</svg>
